<?xml version="1.0" encoding="utf-8"?>
<!-- Generator: Adobe Illustrator 22.1.0, SVG Export Plug-In . SVG Version: 6.00 Build 0)  -->
<svg version="1.1" id="logo" xmlns="http://www.w3.org/2000/svg" xmlns:xlink="http://www.w3.org/1999/xlink" x="0px" y="0px"
	 viewBox="0 0 93.5 60.9" style="enable-background:new 0 0 93.5 60.9;" xml:space="preserve">
<g>
	<path d="M26.1,26.1C16.5,25.9,8.7,18,8.7,8.3V0H0v8.3c0,14.5,11.7,26.3,26.1,26.5v26.1h8.7V0h-8.7V26.1z"/>
	<polygon points="39.1,60.9 70.1,60.9 70.1,52.2 47.8,52.2 47.8,34.8 67.4,34.8 67.4,26.1 47.8,26.1 47.8,8.7 71.3,8.7 71.3,0 
		39.1,0 	"/>
	<polygon points="84.8,0 84.8,52.2 71.4,52.2 71.4,60.9 93.5,60.9 93.5,0 	"/>
</g>
</svg>
